<?xml version="1.0" encoding="utf-8"?>
<!-- Generator: Adobe Illustrator 19.0.0, SVG Export Plug-In . SVG Version: 6.00 Build 0)  -->
<svg version="1.1" id="图形" xmlns="http://www.w3.org/2000/svg" xmlns:xlink="http://www.w3.org/1999/xlink" x="0px" y="0px"
	 viewBox="716.4 412.5 16 16" style="enable-background:new 716.4 412.5 16 16;" xml:space="preserve">
<style type="text/css">
	.st0{fill:#656565;}
</style>
<path class="st0" d="M728.8,421c0-2,1.6-3,1.7-3c-0.9-1.4-2.4-1.6-2.9-1.6c-1.2-0.1-2.4,0.7-3.1,0.7c-0.6,0-1.6-0.7-2.6-0.7
	c-1.4,0-2.6,0.8-3.3,2c-1.4,2.4-0.4,6.1,1,8c0.7,1,1.5,2.1,2.5,2c1,0,1.4-0.7,2.6-0.7c1.2,0,1.6,0.7,2.6,0.6c1.1,0,1.8-1,2.4-2
	c0.8-1.1,1.1-2.2,1.1-2.3C730.9,424.2,728.8,423.4,728.8,421 M726.8,415c0.6-0.7,0.9-1.6,0.8-2.6c-0.8,0-1.8,0.5-2.4,1.2
	c-0.5,0.6-1,1.6-0.8,2.5C725.3,416.2,726.2,415.7,726.8,415"/>
</svg>
